<svg xmlns="http://www.w3.org/2000/svg" width="152.429" height="36" viewBox="0 0 152.429 36">
  <g id="LOGO" transform="translate(-0.535 -2.558)">
    <g id="XMLID_10_" transform="translate(0.535 2.558)">
      <g id="XMLID_16_" transform="translate(41.139 7.337)">
        <path id="XMLID_26_" d="M54.324,25.952H50.057v6.493H46.673V11.569h7.651q7.1,0,7.1,7.011a7.7,7.7,0,0,1-1.783,5.486A6.956,6.956,0,0,1,54.324,25.952Zm-4.268-2.926h4.237q3.656,0,3.656-4.45a4.547,4.547,0,0,0-.884-3.109,3.567,3.567,0,0,0-2.774-.975H50.056Z" transform="translate(-46.673 -10.872)"/>
        <path id="XMLID_29_" d="M68,32.365V10.787h3.322V32.365Z" transform="translate(-48.984 -10.787)"/>
        <path id="XMLID_31_" d="M88.975,22.548V29.5a1.446,1.446,0,0,0,.35.991,1.694,1.694,0,0,0,.991.412l-.089,2.53A6.42,6.42,0,0,1,86.171,32.3a11.6,11.6,0,0,1-4.9,1.128q-4.547,0-4.542-4.847a4.149,4.149,0,0,1,1.235-3.353,6.724,6.724,0,0,1,3.795-1.248l3.932-.335v-1.1a2.25,2.25,0,0,0-.535-1.707,2.252,2.252,0,0,0-1.57-.488q-1.951,0-4.877.243l-.975.062-.122-2.347a26.471,26.471,0,0,1,6.111-.793,5.624,5.624,0,0,1,4.024,1.2,5.15,5.15,0,0,1,1.233,3.825Zm-6.828,3.781a2.051,2.051,0,0,0-2.1,2.287q0,2.1,1.859,2.1a11.8,11.8,0,0,0,3.231-.487l.548-.184V25.992Z" transform="translate(-49.928 -11.517)"/>
        <path id="XMLID_34_" d="M99.839,33.094H96.517V17.853h3.292V18.8a8.481,8.481,0,0,1,4.206-1.28q3.048,0,4.161,1.723t1.113,5.685v8.169H106V25.018a8.274,8.274,0,0,0-.535-3.506,2.216,2.216,0,0,0-2.18-1.036,7.547,7.547,0,0,0-2.987.61l-.457.178v11.83Z" transform="translate(-52.074 -11.516)"/>
        <path id="XMLID_36_" d="M124.6,20.191h-4.207V26.9a7.1,7.1,0,0,0,.275,2.469q.275.61,1.4.609l2.5-.089.152,2.652a17.8,17.8,0,0,1-3.109.4q-2.592,0-3.551-1.189t-.958-4.486V20.191h-1.951V17.356H117.1v-4.42h3.292v4.42H124.6v2.835Z" transform="translate(-54.093 -11.02)"/>
        <path id="XMLID_38_" d="M130.156,14.562V11.056h3.322v3.506Zm0,17.833V17.153h3.322V32.395Z" transform="translate(-55.719 -10.816)"/>
        <path id="XMLID_41_" d="M150.243,21a44,44,0,0,0-5.212-.488,4.656,4.656,0,0,0-2.241.381,1.306,1.306,0,0,0-.624,1.2,1.187,1.187,0,0,0,.686,1.159,15.535,15.535,0,0,0,3.231.777,7.445,7.445,0,0,1,3.613,1.387,4.324,4.324,0,0,1,1.07,3.353,4.087,4.087,0,0,1-1.539,3.535,7.549,7.549,0,0,1-4.5,1.128,27.105,27.105,0,0,1-4.694-.519l-.945-.152.121-2.774a45.1,45.1,0,0,0,5.273.488,4.891,4.891,0,0,0,2.3-.4,1.394,1.394,0,0,0,.686-1.311,1.305,1.305,0,0,0-.655-1.264,13.018,13.018,0,0,0-3.139-.762,8.349,8.349,0,0,1-3.642-1.3,3.846,3.846,0,0,1-1.159-3.231,4.044,4.044,0,0,1,1.6-3.506,6.819,6.819,0,0,1,4.1-1.159,29.1,29.1,0,0,1,4.785.488l.945.178Z" transform="translate(-56.663 -11.519)"/>
        <path id="XMLID_43_" d="M160.486,32.365h-3.322V10.787h3.322V17.92a9.427,9.427,0,0,1,4.176-1.128q3.049,0,4.161,1.723t1.113,5.685v8.169h-3.322V24.288a8.487,8.487,0,0,0-.518-3.5,2.212,2.212,0,0,0-2.194-1.036,9.219,9.219,0,0,0-2.926.488l-.488.178V32.363Z" transform="translate(-58.646 -10.787)"/>
      </g>
      <path id="XMLID_15_" d="M32.012,2.558s1.337,3.114-9.64,7.713S11.695,20.356,11.546,30.147s5.784,4,5.784,4l-4-2.135S10.656,23.47,15.7,20.5s4.746-4,4.746-4,.927,1.844-5.229,6.2a3.77,3.77,0,0,0-1.033,3.46c.322,2.373,10.011.816,14.659-6.007S35.49,4.842,32.012,2.558Z" transform="translate(-1.728 -2.558)" fill="#7fbb3d"/>
      <path id="XMLID_14_" d="M35.357,21.284a17.411,17.411,0,1,1-9.28-15.392c-1.159.587-2.489,1.2-4,1.834a38.548,38.548,0,0,0-4.284,2.086A11.47,11.47,0,1,0,29.424,21.284c0-.107,0-.214-.005-.319q.357-.46.693-.947a41.415,41.415,0,0,0,3.521-6.281,17.272,17.272,0,0,1,1.724,7.547Z" transform="translate(-0.535 -2.701)" fill="#014e37"/>
    </g>
  </g>
</svg>
